# xmcd
#
# Track frame offsets:
# 150
# 15311
# 31302
# 49226
# 64768
# 78281
# 98606
# 121260
# 143083
# 167527
# 186998
# 205099
# 221079
# 236173
# 251897
#
# Disc length: 3559 seconds
#
#
# Revision: 0
# Processed by: cddbd v1.5.2PL0 Copyright (c) Steve Scherf et al.
# Submitted via: FreeRIP 2.90 
#
DISCID=cb0de50f
DTITLE=Kenny Chesney - Kenny Chesney Greatest Hits II
DYEAR=1900
DGENRE=Country
TTITLE0=Out Last Night
TTITLE1=Living In Fast Forward
TTITLE2=Young
TTITLE3=Summertime
TTITLE4=Down The Road
TTITLE5=Beer In Mexico
TTITLE6=There Goes My Life
TTITLE7=When The Sun Goes Down
TTITLE8=Anything But Mine
TTITLE9=Be As You Are
TTITLE10=I Go Back
TTITLE11=No Shoes, No Shirt, No Problem
TTITLE12=The Good Stuff
TTITLE13=Never Wanted Nothing More
TTITLE14=I'm Alive
EXTD=
EXTT0=
EXTT1=
EXTT2=
EXTT3=
EXTT4=
EXTT5=
EXTT6=
EXTT7=
EXTT8=
EXTT9=
EXTT10=
EXTT11=
EXTT12=
EXTT13=
EXTT14=
PLAYORDER=
